<svg width="680" height="520" viewBox="0 0 680 520" xmlns="http://www.w3.org/2000/svg">
  <defs>
    <linearGradient id="bgFill" x1="0" y1="0" x2="0" y2="1">
      <stop offset="0%" stop-color="#f5f5f5"/>
      <stop offset="100%" stop-color="#ebebeb"/>
    </linearGradient>
  </defs>

  <!-- Background pill -->
  <rect x="160" y="60" width="360" height="400" rx="40" fill="url(#bgFill)"/>

  <!-- Document shape (back, rotated left) -->
  <g transform="rotate(-9, 300, 220)">
    <rect x="218" y="105" width="148" height="195" rx="10" fill="none" stroke="#000000" stroke-width="1.2" stroke-opacity="0.18"/>
    <polygon points="346,105 366,125 346,125" fill="#000000" opacity="0.08"/>
    <line x1="346" y1="105" x2="346" y2="125" stroke="#000000" stroke-width="1" stroke-opacity="0.2"/>
    <line x1="346" y1="125" x2="366" y2="125" stroke="#000000" stroke-width="1" stroke-opacity="0.2"/>
    <rect x="234" y="140" width="18" height="3" rx="1.5" fill="#000000" opacity="0.45"/>
    <rect x="258" y="140" width="72" height="3" rx="1.5" fill="#000000" opacity="0.25"/>
    <rect x="234" y="153" width="100" height="2" rx="1" fill="#000000" opacity="0.12"/>
    <rect x="234" y="162" width="82" height="2" rx="1" fill="#000000" opacity="0.1"/>
    <rect x="234" y="175" width="96" height="1.5" rx="0.75" fill="#000000" opacity="0.18"/>
    <rect x="234" y="185" width="70" height="2" rx="1" fill="#000000" opacity="0.08"/>
    <rect x="234" y="194" width="88" height="2" rx="1" fill="#000000" opacity="0.1"/>
    <rect x="234" y="210" width="96" height="1.5" rx="0.75" fill="#000000" opacity="0.15"/>
    <rect x="234" y="220" width="60" height="2" rx="1" fill="#000000" opacity="0.08"/>
    <rect x="234" y="229" width="76" height="2" rx="1" fill="#000000" opacity="0.08"/>
  </g>

  <!-- Kanban card (front, rotated right) -->
  <g transform="rotate(8, 372, 215)">
    <rect x="282" y="116" width="162" height="198" rx="12" fill="#000000" opacity="0.06"/>
    <rect x="278" y="112" width="162" height="198" rx="12" fill="#ffffff" opacity="0.7" stroke="#000000" stroke-width="1" stroke-opacity="0.25"/>
    <rect x="278" y="112" width="162" height="4" rx="2" fill="#000000" opacity="0.5"/>
    <rect x="296" y="130" width="88" height="3.5" rx="1.75" fill="#000000" opacity="0.6"/>
    <rect x="296" y="143" width="120" height="2" rx="1" fill="#000000" opacity="0.22"/>
    <rect x="296" y="152" width="96" height="2" rx="1" fill="#000000" opacity="0.16"/>
    <rect x="296" y="164" width="126" height="1" rx="0.5" fill="#000000" opacity="0.12"/>
    <rect x="296" y="173" width="36" height="14" rx="7" fill="none" stroke="#000000" stroke-width="1" stroke-opacity="0.4"/>
    <rect x="338" y="173" width="36" height="14" rx="7" fill="none" stroke="#000000" stroke-width="1" stroke-opacity="0.25"/>
    <rect x="380" y="173" width="26" height="14" rx="7" fill="none" stroke="#000000" stroke-width="1" stroke-opacity="0.15"/>
    <rect x="296" y="200" width="126" height="4" rx="2" fill="#000000" opacity="0.08"/>
    <rect x="296" y="200" width="72" height="4" rx="2" fill="#000000" opacity="0.55"/>
    <rect x="296" y="218" width="104" height="2" rx="1" fill="#000000" opacity="0.15"/>
    <rect x="296" y="227" width="80" height="2" rx="1" fill="#000000" opacity="0.12"/>
    <rect x="296" y="244" width="116" height="1" rx="0.5" fill="#000000" opacity="0.1"/>
    <rect x="296" y="254" width="90" height="2" rx="1" fill="#000000" opacity="0.14"/>
    <circle cx="420" cy="130" r="12" fill="none" stroke="#000000" stroke-width="1.5" stroke-opacity="0.55"/>
    <path d="M413 130 L418 135 L427 122" fill="none" stroke="#000000" stroke-width="2" stroke-linecap="round" stroke-linejoin="round" opacity="0.65"/>
    <circle cx="300" cy="284" r="8" fill="#000000" opacity="0.12"/>
    <circle cx="314" cy="284" r="8" fill="#000000" opacity="0.08"/>
    <circle cx="328" cy="284" r="8" fill="#000000" opacity="0.05"/>
  </g>

  <!-- Wordmark -->
  <text
    x="340" y="392"
    text-anchor="middle"
    font-family="'Helvetica Neue', Helvetica, Arial, sans-serif"
    font-size="50"
    font-weight="700"
    letter-spacing="-1"
    fill="#0d0d0d"
  >SoloSlack</text>

  <!-- Thin rule -->
  <rect x="270" y="406" width="140" height="1" rx="0.5" fill="#000000" opacity="0.15"/>

  <!-- Tagline -->
  <text
    x="340" y="426"
    text-anchor="middle"
    font-family="'Helvetica Neue', Helvetica, Arial, sans-serif"
    font-size="11"
    font-weight="400"
    letter-spacing="5"
    fill="#000000"
    opacity="0.35"
  >NOTES · KANBAN</text>
</svg>
